<svg xmlns:dc="http://purl.org/dc/elements/1.1/" xmlns:cc="http://creativecommons.org/ns#" xmlns:rdf="http://www.w3.org/1999/02/22-rdf-syntax-ns#" xmlns:svg="http://www.w3.org/2000/svg" xmlns="http://www.w3.org/2000/svg" xmlns:xlink="http://www.w3.org/1999/xlink" xmlns:sodipodi="http://sodipodi.sourceforge.net/DTD/sodipodi-0.dtd" xmlns:inkscape="http://www.inkscape.org/namespaces/inkscape" version="1.1" id="svg9641" inkscape:version="0.92.3 (2405546, 2018-03-11)" sodipodi:docname="logo quadrilogis complet.svg" viewBox="24.02 91.76 42.42 47.65">
  <defs id="defs9635">
    <linearGradient gradientTransform="matrix(0.26458333,0,0,0.26458333,-16.437106,99.707263)" inkscape:collect="always" xlink:href="#linearGradient9011" id="linearGradient9013" x1="43.40699" y1="55.410702" x2="22.911392" y2="-52.916046" gradientUnits="userSpaceOnUse"/>
    <linearGradient inkscape:collect="always" id="linearGradient9011">
      <stop style="stop-color:#2bab35;stop-opacity:1;" offset="0" id="stop9007"/>
      <stop style="stop-color:#8fab2b;stop-opacity:0" offset="1" id="stop9009"/>
    </linearGradient>
    <linearGradient gradientTransform="matrix(0.11674616,0,0,0.11674616,-35.931427,105.55804)" inkscape:collect="always" xlink:href="#linearGradient9033" id="linearGradient9035" x1="38.002625" y1="78.043747" x2="-278.59729" y2="-10.983411" gradientUnits="userSpaceOnUse"/>
    <linearGradient inkscape:collect="always" id="linearGradient9033">
      <stop style="stop-color:#433d3c;stop-opacity:1;" offset="0" id="stop9029"/>
      <stop style="stop-color:#433d3c;stop-opacity:0;" offset="1" id="stop9031"/>
    </linearGradient>
    <linearGradient inkscape:collect="always" xlink:href="#linearGradient9011" id="linearGradient10281" gradientUnits="userSpaceOnUse" gradientTransform="matrix(0.11674616,0,0,0.11674616,-35.931427,105.55804)" x1="43.40699" y1="55.410702" x2="22.911392" y2="-52.916046"/>
    <linearGradient inkscape:collect="always" xlink:href="#linearGradient9011" id="linearGradient5657" gradientUnits="userSpaceOnUse" gradientTransform="matrix(0.26410281,0,0,0.26410281,-10.013621,99.692762)" x1="43.40699" y1="55.410702" x2="22.911392" y2="-52.916046"/>
    <linearGradient inkscape:collect="always" xlink:href="#linearGradient9033" id="linearGradient5659" gradientUnits="userSpaceOnUse" gradientTransform="matrix(0.26410281,0,0,0.26410281,-10.013621,99.692762)" x1="38.002625" y1="78.043747" x2="-278.59729" y2="-10.983411"/>
  </defs>
  <sodipodi:namedview id="base" pagecolor="#ffffff" bordercolor="#666666" borderopacity="1.0" inkscape:pageopacity="0.0" inkscape:pageshadow="2" inkscape:zoom="0.85831322" inkscape:cx="183.16871" inkscape:cy="566.09163" inkscape:document-units="mm" inkscape:current-layer="layer1" showgrid="false" inkscape:window-width="2400" inkscape:window-height="1271" inkscape:window-x="2391" inkscape:window-y="-9" inkscape:window-maximized="1" inkscape:snap-bbox="false" inkscape:snap-global="true"/>
  <metadata id="metadata9638">
    <rdf:RDF>
      <cc:Work rdf:about="">
        <dc:format>image/svg+xml</dc:format>
        <dc:type rdf:resource="http://purl.org/dc/dcmitype/StillImage"/>
        <dc:title/>
      </cc:Work>
    </rdf:RDF>
  </metadata>
  <g inkscape:label="Calque 1" inkscape:groupmode="layer" id="layer1">
    <g id="g10267"/>
    <g inkscape:groupmode="layer" id="layer2" inkscape:label="alignement"/>
    <g id="g6413" transform="matrix(1.0018195,0,0,1.0018195,-6.4052601,-0.16688973)">
      <path sodipodi:nodetypes="sccccccccscccsccscccs" style="opacity:0.95700001;fill:url(#linearGradient5657);fill-opacity:1;stroke:#000000;stroke-width:0.49858883;stroke-miterlimit:2;stroke-dasharray:none;stroke-opacity:0" d="m 46.845204,121.43882 c 0.06092,-5.67838 0.08943,-16.01962 0.04417,-16.01862 -0.02572,5.7e-4 -3.550969,2.07826 -7.833874,4.61705 l -7.924408,4.6909 0.02062,-5.60368 c -0.0093,-3.05456 -0.02688,-5.54723 4.6e-4,-5.5735 0.02742,-0.0263 4.722772,-2.67531 10.272272,-5.82209 l 10.090004,-5.721375 0.204809,0.101531 c 0.112645,0.05575 4.674143,2.638237 10.136662,5.738599 l 9.931853,5.637025 0.033,5.57021 c 0.01813,3.06362 0.02731,5.58086 0.0204,5.59387 -0.007,0.0136 -3.50042,-2.04315 -7.763251,-4.56923 -4.26283,-2.52607 -7.797249,-4.61076 -7.85427,-4.63263 -0.09364,-0.036 -0.10076,0.29398 -0.07354,3.41433 0.01654,1.89978 0.04383,6.13425 0.06056,9.40996 l 0.03041,5.9558 h -4.712939 -4.712844 z" id="path4595" inkscape:connector-curvature="0"/>
      <path style="opacity:1;fill:url(#linearGradient5659);fill-opacity:1;stroke:#000000;stroke-width:1.41093278;stroke-miterlimit:2;stroke-dasharray:none;stroke-opacity:0" d="m 41.328177,132.67601 -10.249856,-5.95847 0.01065,-4.42972 0.02946,-4.42533 6.340123,-3.75893 6.48982,-3.7423 0.0081,8.28943 0.0528,7.97316 7.52348,0.0304 7.584361,-0.0304 -0.0066,-7.94626 c -0.0036,-4.46686 -0.03971,-8.30824 0.0045,-8.30824 0.04415,0 3.037004,1.72816 6.488077,3.73511 l 6.403746,3.72405 -0.04118,4.57972 0.05199,4.30931 -9.563387,5.54596 c -5.163336,2.9943 -9.656785,5.64806 -10.069296,5.89457 l -0.843855,0.46187 z" id="path4590" inkscape:connector-curvature="0" sodipodi:nodetypes="ccccccccccssscccsccc"/>
    </g>
  </g>
</svg>